<svg id="svg" version="1.1" width="400" height="460.2150537634409" viewBox="0 0 400 460.2150537634409" xmlns="http://www.w3.org/2000/svg" xmlns:xlink="http://www.w3.org/1999/xlink" ><g id="svgg"><path id="path0" d="" stroke="none" fill="#24006d" fill-rule="evenodd"></path><path id="path1" d="" stroke="none" fill="#471f70" fill-rule="evenodd"></path><path id="path2" d="M198.981 14.200 C 198.980 22.120,199.034 25.417,199.099 21.526 C 199.165 17.635,199.165 11.155,199.100 7.126 C 199.034 3.097,198.981 6.280,198.981 14.200 M198.980 245.200 C 198.980 253.010,199.034 256.205,199.099 252.300 C 199.165 248.395,199.165 242.005,199.099 238.100 C 199.034 234.195,198.980 237.390,198.980 245.200 " stroke="none" fill="#4f1a72" fill-rule="evenodd"></path><path id="path3" d="" stroke="none" fill="#550c6d" fill-rule="evenodd"></path><path id="path4" d="M199.200 14.200 L 199.200 28.400 99.600 28.400 L 0.000 28.400 0.000 129.001 L 0.000 229.602 100.500 229.501 L 201.000 229.400 201.105 215.100 L 201.210 200.800 300.605 200.800 L 400.000 200.800 400.000 100.400 L 400.000 0.000 299.600 0.000 L 199.200 0.000 199.200 14.200 M199.200 244.800 L 199.200 259.200 99.600 259.200 L 0.000 259.200 0.000 359.600 L 0.000 460.000 100.600 460.000 L 201.200 460.000 201.200 445.800 L 201.200 431.600 300.600 431.600 L 400.000 431.600 400.000 331.000 L 400.000 230.400 299.600 230.400 L 199.200 230.400 199.200 244.800 " stroke="none" fill="#59287a" fill-rule="evenodd"></path></g></svg>